<svg xmlns="http://www.w3.org/2000/svg" width="32" height="32" viewBox="0 0 32 32">
  <g id="community" transform="translate(-166 -799)">
    <rect id="사각형_8" data-name="사각형 8" width="32" height="32" transform="translate(166 799)" fill="#fff" opacity="0"/>
    <path id="Icon_awesome-facebook-messenger" data-name="Icon awesome-facebook-messenger" d="M10.527.563A9.607,9.607,0,0,0,.563,10.207a9.426,9.426,0,0,0,3.13,7.134c.335.3.266.475.323,2.335a.8.8,0,0,0,1.118.7c2.121-.934,2.148-1.008,2.508-.91,6.146,1.691,12.807-2.242,12.807-9.263A9.569,9.569,0,0,0,10.527.563ZM16.51,7.985l-2.927,4.633a1.5,1.5,0,0,1-2.161.4L9.094,11.273a.6.6,0,0,0-.722,0L5.23,13.656a.473.473,0,0,1-.686-.628L7.471,8.395A1.5,1.5,0,0,1,9.632,8L11.96,9.739a.6.6,0,0,0,.722,0l3.144-2.381a.471.471,0,0,1,.685.626Z" transform="translate(171.438 804.438)" fill="#fff"/>
  </g>
</svg>
