<svg xmlns="http://www.w3.org/2000/svg" width="32" height="32" viewBox="0 0 32 32">
  <g id="home" transform="translate(-93 -799)">
    <rect id="사각형_6" data-name="사각형 6" width="32" height="32" transform="translate(93 799)" fill="none"/>
    <path id="Icon_awesome-home" data-name="Icon awesome-home" d="M12.445,7.412,4.261,14.153v7.275a.71.71,0,0,0,.71.71l4.974-.013a.71.71,0,0,0,.707-.71V17.166a.71.71,0,0,1,.71-.71H14.2a.71.71,0,0,1,.71.71v4.245a.71.71,0,0,0,.71.712l4.973.014a.71.71,0,0,0,.71-.71v-7.28L13.124,7.412A.541.541,0,0,0,12.445,7.412Zm12.928,4.581L21.662,8.935V2.786a.533.533,0,0,0-.533-.533H18.643a.533.533,0,0,0-.533.533V6.009L14.136,2.74a2.131,2.131,0,0,0-2.708,0L.192,11.994a.533.533,0,0,0-.071.75L1.253,14.12A.533.533,0,0,0,2,14.192l10.441-8.6a.541.541,0,0,1,.679,0l10.442,8.6a.533.533,0,0,0,.75-.071l1.132-1.376a.533.533,0,0,0-.075-.752Z" transform="translate(96.001 802.746)" fill="#fff"/>
  </g>
</svg>
