<svg xmlns="http://www.w3.org/2000/svg" width="79.479" height="19.297" viewBox="0 0 79.479 19.297">
  <g id="logo" transform="translate(-120.433 -16.015)">
    <path id="패스_9" data-name="패스 9" d="M13.869-15.985c-7.015,0-10.787,3.611-12.075,9.66C.506-.3,2.553,3.312,9.775,3.312,17.02,3.312,20.562-.3,21.85-6.325,23.138-12.374,20.861-15.985,13.869-15.985ZM10.787-1.449c-2.806,0-3.082-1.932-2.461-4.83l.023-.115c.621-2.921,1.725-4.83,4.508-4.83s3.128,1.909,2.507,4.83l-.023.115C14.72-3.381,13.547-1.449,10.787-1.449Z" transform="translate(119 32)" fill="#167ecd"/>
    <path id="패스_10" data-name="패스 10" d="M.418,2.47H5.8L7.068-3.515a3.013,3.013,0,0,1,2.717-2.66c1.577,0,1.577.969,1.273,2.356L9.728,2.47h5.358l1.748-8.246c.589-2.736-1.444-4.047-3.971-4.047A7.1,7.1,0,0,0,7.98-8.436H7.923l.019-1.007h-5Zm26.334-3.9c-.266.741-1.235,1.064-2.185,1.064-1.539,0-2.223-.57-2.2-1.919H31.9c.114-.361.247-.836.342-1.235.874-4.446-1.558-6.308-5.814-6.308s-7.752,1.672-8.74,6.308c-1.083,5.073,1.767,6.27,6.08,6.27,3.61,0,6.308-.817,7.79-4.18ZM25.745-6.536c1.425,0,1.938.494,1.938,1.558H22.952C23.465-6.137,24.282-6.536,25.745-6.536ZM40.014-9.443H34.827l-1.273,6c-.836,3.933.437,6.194,4.427,6.194a7.532,7.532,0,0,0,4.37-1.064h.038l.019.779h4.826L49.761-9.443H44.384l-1.33,6.27c-.38,1.786-1.235,2.622-2.717,2.622-1.216,0-2.052-.779-1.653-2.622Zm17.9-4.047h-5.4L49.134,2.47h5.4Z" transform="translate(142 32)" fill="#fff"/>
  </g>
</svg>
