<svg xmlns="http://www.w3.org/2000/svg" width="32" height="32" viewBox="0 0 32 32">
  <g id="my" transform="translate(-208 -799)">
    <rect id="사각형_9" data-name="사각형 9" width="32" height="32" transform="translate(208 799)" fill="#fff" opacity="0"/>
    <path id="Icon_awesome-user-alt" data-name="Icon awesome-user-alt" d="M9.942,11.185A5.592,5.592,0,1,0,4.35,5.592,5.594,5.594,0,0,0,9.942,11.185Zm4.971,1.243h-2.14a6.76,6.76,0,0,1-5.662,0H4.971A4.971,4.971,0,0,0,0,17.4v.621a1.865,1.865,0,0,0,1.864,1.864H18.02a1.865,1.865,0,0,0,1.864-1.864V17.4A4.971,4.971,0,0,0,14.913,12.428Z" transform="translate(214 805)" fill="#fff"/>
  </g>
</svg>
